
          <svg data-logo="logo" xmlns="http://www.w3.org/2000/svg" viewBox="0 0 87 28">
            <g id="logogram" transform="translate(0, 14) rotate(0)"></g>
            <g id="logotype" transform="translate(0, 1)"><path fill="#3f51b5" d="M7.52 26L2.31 26L2.31 0.54L12.24 0.54Q15.14 0.54 17.18 1.64Q19.21 2.74 20.28 4.68Q21.35 6.62 21.35 9.13L21.35 9.13Q21.35 11.66 20.26 13.58Q19.17 15.51 17.12 16.59Q15.06 17.68 12.12 17.68L12.12 17.68L5.73 17.68L5.73 13.47L11.28 13.47Q12.89 13.47 13.92 12.92Q14.95 12.36 15.46 11.39Q15.96 10.41 15.96 9.13L15.96 9.13Q15.96 7.85 15.46 6.88Q14.95 5.90 13.91 5.37Q12.87 4.84 11.26 4.84L11.26 4.84L7.52 4.84L7.52 26ZM29.48 4.86L21.68 4.86L21.68 0.54L42.48 0.54L42.48 4.86L34.71 4.86L34.71 26L29.48 26L29.48 4.86ZM53.13 26.38L53.13 26.38Q50.07 26.38 47.80 25.44Q45.54 24.50 44.28 22.65Q43.01 20.80 42.94 18.10L42.94 18.10L48.02 18.10Q48.12 19.39 48.79 20.25Q49.45 21.11 50.56 21.54Q51.68 21.97 53.08 21.97L53.08 21.97Q54.48 21.97 55.51 21.57Q56.55 21.16 57.13 20.43Q57.71 19.69 57.71 18.72L57.71 18.72Q57.71 17.85 57.19 17.26Q56.67 16.67 55.69 16.24Q54.72 15.81 53.32 15.49L53.32 15.49L50.51 14.79Q47.28 14.00 45.45 12.32Q43.63 10.64 43.63 7.87L43.63 7.87Q43.63 5.56 44.87 3.83Q46.10 2.11 48.27 1.15Q50.43 0.19 53.20 0.19L53.20 0.19Q56.02 0.19 58.12 1.16Q60.22 2.13 61.40 3.84Q62.58 5.56 62.61 7.80L62.61 7.80L57.57 7.80Q57.43 6.26 56.26 5.42Q55.09 4.59 53.15 4.59L53.15 4.59Q51.83 4.59 50.89 4.96Q49.95 5.34 49.45 6.00Q48.96 6.67 48.96 7.53L48.96 7.53Q48.96 8.47 49.53 9.09Q50.10 9.71 51.03 10.10Q51.97 10.48 53.04 10.74L53.04 10.74L55.35 11.30Q56.96 11.66 58.34 12.28Q59.72 12.89 60.77 13.79Q61.81 14.69 62.38 15.92Q62.95 17.15 62.95 18.75L62.95 18.75Q62.95 21.06 61.79 22.78Q60.63 24.50 58.43 25.44Q56.22 26.38 53.13 26.38ZM73.38 26L73.38 26L66.80 26L66.80 21.51L73.14 21.51Q75.60 21.51 77.27 20.63Q78.93 19.76 79.77 17.93Q80.61 16.10 80.61 13.25L80.61 13.25Q80.61 10.41 79.76 8.59Q78.91 6.77 77.27 5.90Q75.62 5.03 73.17 5.03L73.17 5.03L66.68 5.03L66.68 0.54L73.48 0.54Q77.31 0.54 80.07 2.07Q82.83 3.60 84.32 6.44Q85.80 9.29 85.80 13.25L85.80 13.25Q85.80 17.23 84.32 20.09Q82.83 22.94 80.04 24.47Q77.26 26 73.38 26ZM64.44 0.54L69.65 0.54L69.65 26L64.44 26L64.44 0.54Z"/></g>
            
          </svg>
        